<?xml version="1.0" encoding="utf-8"?>
<!-- Generator: Adobe Illustrator 25.4.1, SVG Export Plug-In . SVG Version: 6.00 Build 0)  -->
<svg version="1.1" id="Capa_1" xmlns="http://www.w3.org/2000/svg" xmlns:xlink="http://www.w3.org/1999/xlink" x="0px" y="0px"
	 viewBox="0 0 130 67.8" style="enable-background:new 0 0 130 67.8;" xml:space="preserve">
<style type="text/css">
	.st0{fill:#FFFFFF;}
</style>
<path id="Trazado_1" class="st0" d="M16.3,23.4c0,0-3.4,6.3-3.4,11.8c0,0-0.3,12.9,13.1,12.9h1.8c0,0,2.7,0.8,48.9-12.9H65
	l-0.6-14.5l-5.5,14.5h-8.4L63.8,0h8l-3.7,10.1L76.9,0h25.4L100,5.9h-8.7l-2.7,7.4h8l-2.6,6.6h-7.9l-3.2,8.7h9.5l-0.7,2.6
	c0,0,34.5-8.9,38.2-9.9c0,0-98.3,46.6-114.4,46.6c0,0-15.5,0.1-15.5-12.6C0.1,55.2-1.7,43.4,16.3,23.4z M73.2,32.8L85,1L72.5,14.3
	L73.2,32.8z M53.9,0L40.9,35.2H49L62.1,0H53.9z M17.5,35.2h8.1l5.8-15.4l-0.7,15.4h8.7L52.7,0h-8.1l-6,15.6l1-15.6h-8.7L17.5,35.2z"
	/>
</svg>
